<svg width="21" height="21" viewBox="0 0 21 21" fill="none" xmlns="http://www.w3.org/2000/svg">
<g clip-path="url(#clip0_237_72)">
<path d="M17.7773 3.93051C16.4386 3.32676 15.0036 2.88051 13.5029 2.62676C13.4896 2.62419 13.4757 2.62585 13.4633 2.63149C13.451 2.63713 13.4406 2.64649 13.4338 2.65826C13.2501 2.98113 13.0453 3.40201 12.9018 3.73451C11.3103 3.49671 9.69223 3.49671 8.10068 3.73451C7.94085 3.36601 7.76061 3.0067 7.56081 2.65826C7.55404 2.64634 7.54379 2.63678 7.53144 2.63084C7.51909 2.62489 7.50522 2.62286 7.49168 2.62501C5.99193 2.87876 4.55693 3.32501 3.21731 3.92963C3.20578 3.93447 3.19601 3.94271 3.18931 3.95326C0.466307 7.95638 -0.280068 11.8606 0.0865573 15.7159C0.0875775 15.7253 0.0905084 15.7345 0.0951716 15.7427C0.0998348 15.751 0.106133 15.7582 0.113682 15.764C1.70303 16.9211 3.47573 17.8026 5.35756 18.3715C5.37068 18.3755 5.38471 18.3755 5.39782 18.3715C5.41093 18.3674 5.42251 18.3595 5.43106 18.3488C5.836 17.8072 6.19484 17.2326 6.50381 16.6311C6.5081 16.6229 6.51057 16.6139 6.51105 16.6046C6.51154 16.5953 6.51003 16.5861 6.50663 16.5774C6.50323 16.5688 6.49801 16.561 6.49134 16.5546C6.48466 16.5481 6.47668 16.5432 6.46793 16.5401C5.90269 16.3273 5.35501 16.0704 4.82993 15.7719C4.8205 15.7665 4.81255 15.7589 4.8068 15.7496C4.80104 15.7404 4.79767 15.7299 4.79697 15.7191C4.79628 15.7082 4.79829 15.6974 4.80282 15.6875C4.80735 15.6776 4.81426 15.6691 4.82293 15.6625C4.93318 15.5811 5.04343 15.4963 5.14843 15.4114C5.15788 15.4038 5.16927 15.3989 5.18132 15.3973C5.19337 15.3958 5.20561 15.3976 5.21668 15.4026C8.65281 16.9461 12.3742 16.9461 15.7701 15.4026C15.7812 15.3973 15.7935 15.3953 15.8058 15.3967C15.818 15.398 15.8296 15.4028 15.8392 15.4105C15.9442 15.4963 16.0536 15.5811 16.1647 15.6625C16.1734 15.6689 16.1805 15.6774 16.1851 15.6872C16.1898 15.697 16.192 15.7078 16.1915 15.7186C16.1909 15.7294 16.1877 15.74 16.1822 15.7493C16.1766 15.7586 16.1688 15.7663 16.1594 15.7719C15.6362 16.0729 15.0919 16.3275 14.5206 16.5393C14.5118 16.5424 14.5038 16.5475 14.4971 16.554C14.4904 16.5605 14.4852 16.5684 14.4818 16.5771C14.4784 16.5858 14.4769 16.5951 14.4774 16.6044C14.4779 16.6137 14.4804 16.6228 14.4847 16.6311C14.7997 17.2323 15.1602 17.8045 15.5566 18.3479C15.5648 18.359 15.5763 18.3674 15.5894 18.3718C15.6026 18.3761 15.6168 18.3764 15.6301 18.3724C17.5151 17.8051 19.2907 16.9232 20.8818 15.764C20.8896 15.7586 20.8961 15.7516 20.9009 15.7434C20.9057 15.7353 20.9088 15.7262 20.9098 15.7168C21.3473 11.2595 20.1766 7.38676 17.8044 3.95501C17.7986 3.94386 17.789 3.93516 17.7773 3.93051ZM7.01743 13.3683C5.98318 13.3683 5.13006 12.4329 5.13006 11.2858C5.13006 10.1378 5.96656 9.20326 7.01743 9.20326C8.07618 9.20326 8.92143 10.1456 8.90481 11.2858C8.90481 12.4338 8.06831 13.3683 7.01743 13.3683ZM13.9956 13.3683C12.9604 13.3683 12.1082 12.4329 12.1082 11.2858C12.1082 10.1378 12.9438 9.20326 13.9956 9.20326C15.0543 9.20326 15.8996 10.1456 15.8829 11.2858C15.8829 12.4338 15.0552 13.3683 13.9956 13.3683Z" fill="#DDA34E"/>
</g>
<defs>
<clipPath id="clip0_237_72">
<rect width="21" height="21" fill="white"/>
</clipPath>
</defs>
</svg>
