<svg width="17" height="17" viewBox="0 0 17 17" fill="none" xmlns="http://www.w3.org/2000/svg">
<g clip-path="url(#clip0_237_68)">
<path d="M0 1.18754C0 0.531596 0.545067 0 1.21759 0H15.3624C16.0349 0 16.58 0.531596 16.58 1.18754V15.3925C16.58 16.0484 16.0349 16.58 15.3624 16.58H1.21759C0.545067 16.58 0 16.0484 0 15.3925V1.18754ZM5.12218 13.8795V6.39263H2.63415V13.8795H5.12218ZM3.87868 5.36985C4.74603 5.36985 5.28591 4.79576 5.28591 4.07661C5.27037 3.34191 4.74706 2.78337 3.89526 2.78337C3.04347 2.78337 2.487 3.34294 2.487 4.07661C2.487 4.79576 3.02689 5.36985 3.8621 5.36985H3.87868ZM8.9646 13.8795V9.69826C8.9646 9.47443 8.98118 9.2506 9.0475 9.09102C9.22677 8.6444 9.63609 8.18119 10.3242 8.18119C11.2247 8.18119 11.5842 8.86719 11.5842 9.87443V13.8795H14.0723V9.58531C14.0723 7.28484 12.8454 6.21543 11.2081 6.21543C9.8879 6.21543 9.2962 6.9408 8.9646 7.45167V7.47758H8.94802C8.95352 7.46893 8.95905 7.46029 8.9646 7.45167V6.39263H6.4776C6.50869 7.0952 6.4776 13.8795 6.4776 13.8795H8.9646Z" fill="#DDA34E"/>
</g>
<defs>
<clipPath id="clip0_237_68">
<rect width="16.58" height="16.58" fill="white"/>
</clipPath>
</defs>
</svg>
