<svg width="20" height="20" viewBox="0 0 20 20" fill="none" xmlns="http://www.w3.org/2000/svg">
<g clip-path="url(#clip0_237_70)">
<path d="M19.6409 4.10131C18.9472 4.40868 18.202 4.61636 17.4187 4.71023C18.227 4.22657 18.8317 3.46536 19.12 2.56861C18.3606 3.01969 17.5294 3.3372 16.6627 3.50734C16.0798 2.88501 15.3078 2.47252 14.4665 2.33391C13.6252 2.1953 12.7617 2.33833 12.01 2.74078C11.2583 3.14324 10.6605 3.78261 10.3094 4.55962C9.95832 5.33664 9.87359 6.20783 10.0684 7.03793C8.52959 6.96067 7.02426 6.56072 5.65007 5.86403C4.27587 5.16735 3.06352 4.1895 2.0917 2.99394C1.75941 3.56715 1.56834 4.23173 1.56834 4.93951C1.56797 5.57668 1.72488 6.20408 2.02514 6.76606C2.32541 7.32804 2.75974 7.80722 3.28961 8.16108C2.6751 8.14153 2.07415 7.97548 1.53678 7.67676V7.72661C1.53671 8.62026 1.84583 9.48641 2.41169 10.1781C2.97754 10.8698 3.76527 11.3444 4.64121 11.5214C4.07115 11.6757 3.47349 11.6984 2.89336 11.5878C3.1405 12.3568 3.6219 13.0292 4.27018 13.5109C4.91846 13.9927 5.70115 14.2596 6.50869 14.2744C5.13785 15.3506 3.44487 15.9343 1.70209 15.9317C1.39338 15.9318 1.08492 15.9138 0.77832 15.8777C2.54734 17.0151 4.6066 17.6188 6.70973 17.6164C13.8291 17.6164 17.721 11.7199 17.721 6.60596C17.721 6.43981 17.7169 6.272 17.7094 6.10586C18.4664 5.55838 19.1199 4.88044 19.6392 4.1038L19.6409 4.10131Z" fill="#DDA34E"/>
</g>
<defs>
<clipPath id="clip0_237_70">
<rect width="19.9375" height="19.9375" fill="white"/>
</clipPath>
</defs>
</svg>
