<svg width="275" height="327" viewBox="0 0 275 327" fill="none" xmlns="http://www.w3.org/2000/svg">
<g clip-path="url(#clip0_209_4)">
<path d="M75.8242 61.3418L92.9311 73.2435V63.4584L136.912 85.1245L180.894 63.4584V73.2435L198.001 61.3418C198.001 61.3418 194.027 24.1072 207.16 0.303849C207.16 0.303849 184.254 13.1222 171.121 36.6217C171.121 36.6217 179.672 30.8228 184.558 30.8228V43.3322L144.546 61.9495V41.2001L155.236 43.0283L136.912 0L118.604 43.0283L129.294 41.2001V61.9495L89.2819 43.3322V30.8022C94.1733 30.8022 102.724 36.6011 102.724 36.6011C89.5912 13.1016 66.6805 0.283252 66.6805 0.283252C79.7981 24.1072 75.8242 61.3418 75.8242 61.3418Z" fill="#DDA34E"/>
<path d="M274.088 172.314H265.779C268.145 191.595 266.189 211.16 260.053 229.593H245.497C246.476 227.004 247.361 224.374 248.152 221.703H247.904C232.632 221.703 218.917 212.546 208.072 195.046C203.453 187.447 199.709 179.349 196.913 170.908C193.312 174.395 190.545 178.651 188.821 183.356C190.228 187.198 195.97 198.806 196.166 199.192C196.166 199.192 207.464 246.495 187.001 273.661C187.001 273.661 196.362 244.399 179.956 216.47C179.868 216.306 179.77 216.146 179.672 215.981V242.318C179.677 250.347 178.54 258.335 176.296 266.045C176.095 266.729 175.889 267.409 175.672 268.105C175.675 268.128 175.675 268.153 175.672 268.177C175.528 268.633 175.379 269.086 175.224 269.536C172.821 276.771 169.61 283.712 165.653 290.229H165.601C165.405 290.584 165.209 290.935 165.008 291.259C162.52 295.249 159.743 299.051 156.7 302.635H156.777L156.545 302.898H156.473C155.473 304.062 154.504 305.128 153.581 306.101C151.482 308.303 149.27 310.393 146.953 312.364C146.901 312.402 146.851 312.443 146.803 312.487C171.473 310.458 194.964 301.07 214.231 285.542H235.173L235.338 285.378C235.591 285.12 235.853 284.863 236.085 284.605L236.998 283.658L237.121 283.529C237.451 283.184 237.776 282.834 238.101 282.499L238.719 281.834C238.848 281.69 238.977 281.551 239.101 281.407C239.224 281.263 239.477 280.995 239.657 280.789C239.951 280.465 240.24 280.135 240.528 279.81L240.57 279.764C241.131 279.126 241.688 278.487 242.234 277.838C250.638 267.954 257.603 256.934 262.924 245.105H253.708C247.873 257.093 240.243 268.122 231.081 277.812H211.025C214.045 275.318 216.936 272.671 219.685 269.881H230.483C238.95 260.154 245.848 249.167 250.93 237.318H257.187C257.189 237.337 257.189 237.356 257.187 237.374H266.124C266.124 237.374 266.124 237.338 266.124 237.318C267.083 234.774 267.968 232.199 268.779 229.593C274.491 211.07 276.3 191.565 274.093 172.309L274.088 172.314ZM203.474 199.249C218.499 242.622 230.916 248.406 235.637 248.854C231.843 255.05 227.479 260.879 222.602 266.266C208.345 247.499 203.459 199.249 203.459 199.249H203.474Z" fill="#DDA34E"/>
<path d="M137.675 318.76H137.345C109.87 318.474 83.1925 309.489 61.1501 293.097H47.8676C72.6782 314.715 104.417 326.741 137.335 326.995H137.675C170.593 326.741 202.332 314.715 227.143 293.097H213.86C191.821 309.487 165.147 318.472 137.675 318.76Z" fill="#DDA34E"/>
<path d="M248.363 156.978C249.081 159.518 249.708 162.093 250.244 164.703C253.491 180.428 253.46 196.653 250.151 212.366C250.089 212.649 250.033 212.932 249.971 213.216C249.346 216.079 248.615 218.9 247.78 221.677H256.409C261.502 203.107 262.281 183.619 258.687 164.703H273.005V164.605C272.562 162.03 272.057 159.501 271.459 156.978C266.285 134.511 255.539 113.705 240.209 96.4752V109.546C250.939 123.643 258.669 139.785 262.924 156.978H248.363Z" fill="#DDA34E"/>
<path d="M60.7789 285.537C79.9598 300.996 103.328 310.372 127.882 312.462C123.761 309.624 119.994 306.305 116.661 302.574L116.445 302.316C116.347 302.203 116.259 302.089 116.161 301.981C113.575 298.867 111.179 295.599 108.987 292.196C102.951 282.308 99.2709 271.272 97.0803 260.74C97.0803 260.694 97.0803 260.647 97.0545 260.601C96.6456 258.764 96.302 256.912 96.0237 255.044L95.9618 254.663C95.3676 250.585 95.0696 246.47 95.0701 242.349V215.997C95.0083 216.1 94.9464 216.203 94.8897 216.306C94.833 216.409 94.699 216.625 94.6114 216.779C78.4528 244.62 87.746 273.677 87.746 273.677C74.6078 256.239 74.5614 230.499 76.2107 214.307C76.6984 209.233 77.4902 204.192 78.5817 199.213C79.7156 198.008 80.8186 192.003 86.277 190.514C102.405 186.111 121.635 156.833 122.104 155.896C122.712 154.675 117.068 140.92 117.068 140.92C112.79 138.479 109.734 143.665 97.8225 140.92C87.4625 138.371 81.3289 130.064 77.9632 123.193C82.3752 123.528 88.9314 123.595 89.5396 123.394C90.3231 123.132 78.8755 115.855 75.4994 113.728L92.9157 122.163C103.616 126.335 121.068 132.582 121.336 132.68C121.599 132.752 130.836 135.208 133.856 129.203C133.748 129.564 130.315 138.989 124.429 139.452C131.377 156.632 127.753 165.336 127.753 165.336L121.95 160.454L117.976 167.473C123.553 175.075 133.995 180.58 137.361 182.228C140.706 180.595 151.169 175.09 156.761 167.468L152.793 160.449L146.989 165.336C146.989 165.336 143.381 156.674 150.267 139.586C144.329 139.2 141.299 129.585 141.19 129.224C143.902 134.611 151.617 133.19 153.36 132.788C153.371 132.758 153.385 132.728 153.401 132.7L158.421 130.759C179.038 119.717 168.652 103.644 168.652 103.644V95.404L137.155 112.914V112.77L106.038 95.404V103.644L79.36 89.5123L68.1959 83.6053V133.735L58.6502 122.38L55.2072 139.086L69.4071 154.197C69.4071 154.197 89.117 160.583 92.3178 173.88L85.4523 185.303C83.8797 179.903 80.979 174.983 77.0148 170.991C74.2218 179.396 70.4907 187.46 65.8919 195.031C55.2484 212.201 41.8422 221.337 26.9258 221.677C27.7161 224.355 28.6009 226.987 29.5802 229.572H14.9473C8.81124 211.14 6.85521 191.575 9.22092 172.294H0.912264C-1.2932 191.556 0.521473 211.066 6.24176 229.593C7.04926 232.199 7.93407 234.774 8.8962 237.318C8.8962 237.318 8.8962 237.354 8.8962 237.374H17.8388C17.8281 237.356 17.8195 237.337 17.8131 237.318H24.0703C29.1525 249.166 36.0509 260.15 44.5172 269.876H55.3979C58.1473 272.667 61.0392 275.314 64.0622 277.807H43.9193C34.7575 268.117 27.1274 257.087 21.2922 245.099H12.097C17.4147 256.919 24.3745 267.93 32.7707 277.807C33.8015 279.043 34.8702 280.26 35.9766 281.458L36.2859 281.809L36.5591 282.102L36.6312 282.179C36.8322 282.401 37.0384 282.622 37.2446 282.839L37.7342 283.354C38.4215 284.085 39.1173 284.808 39.8217 285.522L60.7789 285.537ZM70.3349 148.222L61.8561 139.086L63.5364 132.391C63.5364 132.391 68.6907 138.695 70.237 140.477C70.237 143.835 70.3504 145.39 70.3349 148.222ZM52.4135 266.271C47.5363 260.883 43.1724 255.052 39.3785 248.854C44.0998 248.401 56.5163 242.607 71.5358 199.249C71.5358 199.249 66.6496 247.504 52.4135 266.271Z" fill="#DDA34E"/>
<path d="M1.99475 164.703H16.3133C12.7283 183.616 13.5145 203.098 18.6121 221.662H24.2354C24.8539 221.693 25.4672 221.708 26.0806 221.708V221.662H27.2506C26.34 218.63 25.5548 215.54 24.8951 212.392C21.5714 196.66 21.5345 180.413 24.7869 164.666C25.316 162.088 25.9345 159.546 26.6424 157.039L26.6733 156.936H12.0559C16.3195 139.749 24.0565 123.615 34.7913 109.525V96.4597C19.4582 113.693 8.71153 134.505 3.54103 156.978C2.9586 159.501 2.45348 162.04 1.99475 164.605V164.703Z" fill="#DDA34E"/>
<path d="M213.278 132.376L214.958 139.071L206.479 148.222C206.479 147.61 206.479 147.059 206.479 146.538L206.113 153.372L219.54 139.081L216.102 122.375L207.227 132.932L206.835 140.142C208.665 138.031 213.278 132.376 213.278 132.376Z" fill="#DDA34E"/>
<path d="M200.449 113.146L200.372 113.177L194.975 115.237L178.786 125.537L196.681 123.477C198.299 120.252 199.556 116.858 200.428 113.357C200.434 113.202 200.449 113.146 200.449 113.146Z" fill="#DDA34E"/>
<path d="M181.729 184.916C181.373 184.566 180.945 184.154 180.445 183.685L180.368 183.613C174.451 178.072 159.632 165.31 156.143 161.237C158.096 165.326 162.766 169.183 163.874 171.387C169.472 175.507 177.951 181.862 181.445 184.715L181.672 184.896L181.729 184.916Z" fill="#DDA34E"/>
<path d="M183.033 186.111C182.631 185.674 182.191 185.274 181.718 184.916C182.13 185.364 182.577 185.779 183.053 186.157C183.053 186.157 183.058 186.137 183.033 186.111Z" fill="#DDA34E"/>
<path d="M126.228 195.546L117.373 202.874C121.295 201.329 133.475 200.856 136.918 200.758H137.433H137.809C141.252 200.856 153.437 201.304 157.354 202.869L148.499 195.546H126.228Z" fill="#DDA34E"/>
<path d="M185.337 154.428C194.913 151.565 197.619 138.463 197.707 138.051C191.712 147.115 182.528 149.263 175.028 149.222H174.307C171.567 149.143 168.84 148.808 166.163 148.222C164.901 147.947 163.655 147.603 162.431 147.192C164.22 148.522 166.099 149.727 168.054 150.797C171.765 152.827 176.817 154.969 181.553 154.969C182.638 154.973 183.72 154.849 184.775 154.598C184.96 154.536 185.151 154.485 185.337 154.428Z" fill="#DDA34E"/>
<path d="M85.6173 119.12C85.7891 119.206 85.985 119.298 86.2049 119.398L85.6173 119.12Z" fill="#DDA34E"/>
<path d="M228.215 117.034C235.805 126.791 241.791 137.695 245.945 149.335H254.708C249.893 134.69 242.376 121.075 232.544 109.196L232.07 108.619C231.271 107.666 230.457 106.719 229.627 105.786L224.813 83.2345V112.899L228.148 116.983L228.215 117.034Z" fill="#DDA34E"/>
<path d="M20.282 149.335H29.0442C33.1991 137.695 39.1844 126.791 46.7749 117.034L46.8212 116.972L46.8831 116.895L50.1457 112.899V78.8672L42.4247 108.567V109.17C32.5976 121.059 25.0871 134.682 20.282 149.335Z" fill="#DDA34E"/>
</g>
<defs>
<clipPath id="clip0_209_4">
<rect width="275" height="327" fill="white"/>
</clipPath>
</defs>
</svg>
