<svg width="22" height="22" viewBox="0 0 22 22" fill="none" xmlns="http://www.w3.org/2000/svg">
<path d="M10.9375 8.0899C9.36953 8.0899 8.08993 9.3695 8.08993 10.9375C8.08993 12.5055 9.36953 13.7851 10.9375 13.7851C12.5055 13.7851 13.7851 12.5055 13.7851 10.9375C13.7851 9.3695 12.5055 8.0899 10.9375 8.0899ZM19.4782 10.9375C19.4782 9.7583 19.4889 8.58978 19.4226 7.41271C19.3564 6.04553 19.0445 4.83215 18.0448 3.83239C17.0429 2.8305 15.8316 2.52075 14.4644 2.45452C13.2852 2.3883 12.1167 2.39898 10.9397 2.39898C9.76046 2.39898 8.59194 2.3883 7.41488 2.45452C6.04769 2.52075 4.83431 2.83264 3.83456 3.83239C2.83267 4.83428 2.52291 6.04553 2.45669 7.41271C2.39047 8.59191 2.40115 9.76043 2.40115 10.9375C2.40115 12.1146 2.39047 13.2852 2.45669 14.4623C2.52291 15.8295 2.8348 17.0428 3.83456 18.0426C4.83645 19.0445 6.04769 19.3542 7.41488 19.4205C8.59408 19.4867 9.7626 19.476 10.9397 19.476C12.1189 19.476 13.2874 19.4867 14.4644 19.4205C15.8316 19.3542 17.045 19.0424 18.0448 18.0426C19.0467 17.0407 19.3564 15.8295 19.4226 14.4623C19.491 13.2852 19.4782 12.1167 19.4782 10.9375ZM10.9375 15.3189C8.5129 15.3189 6.55612 13.3621 6.55612 10.9375C6.55612 8.51287 8.5129 6.55609 10.9375 6.55609C13.3621 6.55609 15.3189 8.51287 15.3189 10.9375C15.3189 13.3621 13.3621 15.3189 10.9375 15.3189ZM15.4984 7.3999C14.9323 7.3999 14.4751 6.94274 14.4751 6.37664C14.4751 5.81054 14.9323 5.35339 15.4984 5.35339C16.0645 5.35339 16.5216 5.81054 16.5216 6.37664C16.5218 6.51107 16.4954 6.6442 16.4441 6.76842C16.3927 6.89265 16.3174 7.00552 16.2223 7.10057C16.1273 7.19562 16.0144 7.27099 15.8902 7.32235C15.7659 7.37371 15.6328 7.40007 15.4984 7.3999Z" fill="#DDA34E"/>
</svg>
